<svg width="56" height="56" viewBox="0 0 56 56" fill="none" xmlns="http://www.w3.org/2000/svg">
<path d="M46.3642 9.63545C56.507 19.7783 56.507 36.2204 46.3642 46.3632C36.2214 56.5061 19.7793 56.5061 9.63643 46.3632C-0.506414 36.2204 -0.506414 19.7783 9.63643 9.63545C19.7793 -0.507391 36.2214 -0.507391 46.3642 9.63545Z" fill="white"/>
<path d="M5.51016 40.9851C2.2581 35.3496 3.91154 28.1673 9.29605 24.5199L9.30182 24.5142C13.6273 21.5911 19.3206 21.6892 23.5451 24.7595L32.4587 31.2405C36.6803 34.3108 42.3735 34.4089 46.7019 31.4858L46.7077 31.48C52.0951 27.8326 53.7514 20.6446 50.4936 15.0148" fill="white"/>
<path d="M40.9919 50.4896C35.3563 53.7417 28.1741 52.0882 24.5267 46.7037L24.5209 46.6979C21.5978 42.3724 21.6959 36.6792 24.7662 32.4547L31.2472 23.5411C34.3175 19.3195 34.4156 13.6262 31.4925 9.29782L31.481 9.29205C27.8336 3.91043 20.6456 2.25122 15.0158 5.50904" fill="white"/>
<path fill-rule="evenodd" clip-rule="evenodd" d="M15.8855 7.34284C14.1664 8.35267 12.5463 9.59533 11.0708 11.0708C6.64155 15.5001 4.3104 21.2324 4.07738 27.0332C5.09428 25.4357 6.44202 24.0157 8.09511 22.8835C8.11819 22.8664 8.14164 22.8498 8.16544 22.8337C13.1987 19.4324 19.8229 19.5469 24.7376 23.1188L24.738 23.1191L27.5559 25.168L29.6059 22.3485L29.606 22.3484C32.1469 18.8547 32.2544 14.155 29.8868 10.5482C29.8569 10.5103 29.8283 10.4712 29.8011 10.431C26.7492 5.92812 20.7372 4.54289 16.0317 7.26585C15.9836 7.2937 15.9348 7.31935 15.8855 7.34284ZM28.9706 4.07754C30.545 5.08014 31.9468 6.40362 33.0702 8.02303C33.1066 8.06806 33.1411 8.11473 33.1737 8.16294C36.5742 13.1983 36.4606 19.8226 32.8878 24.7351L30.838 27.5544L33.6516 29.6001L33.6517 29.6002C37.1647 32.1551 41.8969 32.2497 45.5114 29.8416C45.5307 29.8276 45.5501 29.8139 45.5699 29.8005C50.0772 26.749 51.4604 20.7377 48.7371 16.0317C48.7149 15.9933 48.694 15.9544 48.6746 15.9152C47.6616 14.1851 46.4132 12.5548 44.9292 11.0708C40.5009 6.64253 34.7702 4.31143 28.9706 4.07754ZM51.9223 28.9759C50.9052 30.5706 49.5585 31.9879 47.9077 33.1181C47.8845 33.1352 47.861 33.1518 47.8372 33.1679C42.8018 36.5685 36.1775 36.4548 31.265 32.8821L28.4516 30.8365L26.4072 33.6482C26.4071 33.6483 26.407 33.6484 26.4069 33.6485C23.8515 37.165 23.7579 41.8971 26.1651 45.5079C26.1791 45.5272 26.1929 45.5467 26.2062 45.5665C29.2571 50.0703 35.2636 51.453 39.9774 48.7329C40.0109 48.7136 40.0447 48.6953 40.0788 48.6781C41.8112 47.6645 43.4435 46.4149 44.9292 44.9292C49.3561 40.5022 51.6872 34.7736 51.9223 28.9759ZM27.0392 51.9229C25.4416 50.9059 24.0216 49.5582 22.8893 47.905C22.8722 47.8819 22.8556 47.8585 22.8395 47.8347C19.4381 42.8014 19.5526 36.1772 23.1246 31.2625L23.1248 31.2621L25.1695 28.4501L22.3519 26.4014C22.3518 26.4013 22.3517 26.4013 22.3516 26.4012C18.8351 23.8457 14.103 23.7521 10.4922 26.1593C10.4729 26.1734 10.4534 26.1871 10.4337 26.2005C5.9298 29.2513 4.54706 35.2579 7.26722 39.9717C7.29355 40.0173 7.3179 40.0635 7.34031 40.1102C8.35059 41.8309 9.5941 43.4524 11.0708 44.9292C15.5016 49.36 21.2363 51.6912 27.0392 51.9229ZM8.20141 8.20141C19.1366 -2.7338 36.8634 -2.7338 47.7986 8.20141C58.7338 19.1366 58.7338 36.8634 47.7986 47.7986C36.8634 58.7338 19.1366 58.7338 8.20141 47.7986C-2.7338 36.8634 -2.7338 19.1366 8.20141 8.20141Z" fill="#36599E"/>
<path d="M42.608 27.9993C42.608 36.0675 36.0675 42.608 27.9993 42.608C19.9312 42.608 13.3906 36.0675 13.3906 27.9993C13.3906 19.9312 19.9312 13.3906 27.9993 13.3906C36.0675 13.3906 42.608 19.9312 42.608 27.9993Z" fill="#36599E"/>
<path d="M21.9964 33.017C21.8453 33.9465 21.7655 34.8638 21.748 35.7613C23.0625 37.2094 24.782 38.1923 26.7626 38.4698C31.954 39.1971 36.9717 34.8173 37.9699 28.6882C38.4525 25.7282 37.9066 22.9028 36.6308 20.6892C36.0831 20.4827 35.5109 20.3313 34.9154 20.2481C29.0627 19.4286 23.2785 25.1455 21.9964 33.017Z" fill="white"/>
<path d="M21.3586 20.5439C21.511 19.6867 21.7116 18.8387 21.9551 18.0127C20.3158 19.5137 19.0394 21.6089 18.4184 24.1034C17.3715 28.3075 18.4598 32.5207 20.9286 35.1704C20.9241 34.3708 20.9632 33.568 21.0487 32.7756C21.1632 31.7184 21.3531 30.6834 21.6138 29.6811L21.3848 28.5647C20.8766 26.0816 20.8674 23.3074 21.3586 20.5439Z" fill="white"/>
<path d="M27.2868 20.5015C26.2373 19.0292 24.7798 17.9452 23.1521 17.3872C23.1317 17.3859 23.1112 17.3831 23.0908 17.3818C22.7383 18.4184 22.4523 19.5192 22.248 20.6692C21.7605 23.4123 21.8021 26.0541 22.2704 28.3445C23.0921 25.9075 24.3448 23.713 25.9545 21.9416C26.4368 21.4107 26.8402 20.9308 27.2868 20.5015Z" fill="white"/>
</svg>
